<svg xmlns="http://www.w3.org/2000/svg" version="1.1" xmlns:xlink="http://www.w3.org/1999/xlink" xmlns:svgjs="http://svgjs.dev/svgjs" width="2000" height="1500" viewBox="0 0 2000 1500"><rect width="2000" height="1500" fill="#333366"></rect><g transform="matrix(0.75,0,0,0.75,249.090909090909,282.7536437246963)"><svg viewBox="0 0 396 247" data-background-color="#333366" preserveAspectRatio="xMidYMid meet" height="1247" width="2000" xmlns="http://www.w3.org/2000/svg" xmlns:xlink="http://www.w3.org/1999/xlink"><g id="tight-bounds" transform="matrix(1,0,0,1,0.2400000000000091,-0.09999999999999432)"><svg viewBox="0 0 395.52 247.2" height="247.2" width="395.52"><g><svg></svg></g><g><svg viewBox="0 0 395.52 247.2" height="247.2" width="395.52"><g transform="matrix(1,0,0,1,101.82967764705882,47.215199999999996)"><svg viewBox="0 0 191.86064470588235 152.7696" height="152.7696" width="191.86064470588235"><g><svg viewBox="0 0 191.86064470588235 152.7696" height="152.7696" width="191.86064470588235"><g><svg viewBox="0 0 191.86064470588235 152.7696" height="152.7696" width="191.86064470588235"><g><svg viewBox="0 0 191.86064470588235 152.7696" height="152.7696" width="191.86064470588235"><g id="textblocktransform"><svg viewBox="0 0 191.86064470588235 152.7696" height="152.7696" width="191.86064470588235" id="textblock"><g><svg viewBox="0 0 191.86064470588235 152.7696" height="152.7696" width="191.86064470588235"><g transform="matrix(1,0,0,1,0,0)"><svg width="191.86064470588235" viewBox="4.25 -33.25 42.70000076293945 34" height="152.7696" data-palette-color="#ffffff"><path d="M17.25-13.5L11.65-13.5 11.65-16.5 20.75-16.5 20.75 0 19.25 0 17.95-3.2Q16.9-1.4 15.2-0.33 13.5 0.75 11.5 0.75L11.5 0.75Q4.25 0.75 4.25-6.25L4.25-6.25 4.25-26.25Q4.25-29.6 6.3-31.43 8.35-33.25 12.45-33.25 16.55-33.25 18.65-31.43 20.75-29.6 20.75-26.25L20.75-26.25 20.75-23.5 17.25-23.5 17.25-26.25Q17.25-30.25 12.5-30.25 7.75-30.25 7.75-26.25L7.75-26.25 7.75-6.25Q7.75-4.35 8.55-3.3 9.35-2.25 11.48-2.25 13.6-2.25 15.43-3.95 17.25-5.65 17.25-7.25L17.25-7.25 17.25-13.5ZM46.95-32.5L39.6 0 34.35 0 27-32.5 30.5-32.5 36.95-3.85 43.45-32.5 46.95-32.5Z" opacity="1" transform="matrix(1,0,0,1,0,0)" fill="#ffffff" class="wordmark-text-0" data-fill-palette-color="primary" id="text-0"></path></svg></g></svg></g></svg></g></svg></g></svg></g></svg></g></svg></g><g><path d="M0 123.6c0-68.262 55.338-123.6 123.6-123.6 30.402 0 58.24 10.976 79.768 29.183l-11.147 0c-19.26-14.022-42.974-22.294-68.621-22.295-64.458 0-116.712 52.254-116.712 116.712 0 64.458 52.254 116.712 116.712 116.712 25.647 0 49.361-8.272 68.621-22.295l11.147 0c-21.528 18.206-49.366 29.183-79.768 29.183-68.262 0-123.6-55.338-123.6-123.6z" fill="#ffffff" stroke="transparent" data-fill-palette-color="tertiary"></path></g></svg></g><defs></defs></svg><rect width="395.52" height="247.2" fill="none" stroke="none" visibility="hidden"></rect></g></svg></g></svg>